<?xml version="1.0" standalone="no"?>
<!DOCTYPE svg PUBLIC "-//W3C//DTD SVG 20010904//EN"
 "http://www.w3.org/TR/2001/REC-SVG-20010904/DTD/svg10.dtd">
<svg version="1.0" xmlns="http://www.w3.org/2000/svg"
 width="96.000000pt" height="96.000000pt" viewBox="0 0 96.000000 96.000000"
 preserveAspectRatio="xMidYMid meet">
<metadata>
Created by potrace 1.14, written by Peter Selinger 2001-2017
</metadata>
<g transform="translate(0.000000,96.000000) scale(0.100000,-0.100000)"
fill="#000000" stroke="none">
<path d="M162 798 c-7 -7 -12 -20 -12 -30 0 -11 -7 -18 -18 -18 -40 0 -42 -14
-42 -285 0 -190 3 -264 12 -273 8 -8 58 -12 159 -12 121 0 148 -3 153 -15 8
-21 119 -21 136 0 10 12 40 15 154 15 97 0 146 4 154 12 9 9 12 84 12 276 l0
264 -30 11 c-16 6 -30 18 -30 27 0 34 -22 40 -144 40 -103 0 -126 -3 -153 -20
-33 -20 -33 -20 -65 0 -28 17 -51 20 -153 20 -81 0 -125 -4 -133 -12z m262
-30 c14 -6 29 -20 33 -32 4 -12 7 -114 8 -228 l0 -206 -27 14 c-19 10 -63 14
-143 14 l-115 0 0 225 0 225 110 0 c61 0 120 -5 134 -12z m354 -215 l2 -223
-115 0 c-80 0 -124 -4 -143 -14 l-27 -14 0 207 c1 113 4 215 8 227 12 35 45
43 162 41 l110 -2 3 -222z m-626 -70 l3 -238 140 -3 c137 -2 140 -3 161 -28
l21 -26 24 26 c23 25 28 25 164 28 l140 3 3 238 c2 184 5 238 15 234 9 -3 12
-64 12 -253 l0 -249 -158 -3 c-135 -2 -158 -5 -153 -17 4 -12 -5 -15 -44 -15
-39 0 -48 3 -44 15 5 12 -18 15 -153 17 l-158 3 -3 240 c-2 242 -1 265 18 265
6 0 11 -86 12 -237z m281 -200 c15 -17 9 -18 -119 -15 -109 3 -134 6 -134 18
0 11 22 14 118 14 101 0 121 -3 135 -17z m347 2 c0 -13 -22 -15 -137 -15 -125
1 -136 2 -113 15 37 21 250 21 250 0z"/>
<path d="M257 637 c-10 -28 2 -100 22 -121 15 -16 19 -30 15 -55 -8 -46 2 -78
26 -84 34 -9 52 20 47 72 -4 36 -1 50 15 68 24 26 32 107 12 124 -8 6 -14 8
-15 3 0 -5 -2 -28 -4 -50 -3 -55 -10 -64 -46 -64 -34 0 -48 24 -44 77 2 31
-19 54 -28 30z m80 -187 c1 -22 -2 -40 -8 -40 -10 0 -12 40 -3 64 9 23 10 21
11 -24z"/>
<path d="M324 642 c-14 -9 -12 -68 4 -84 6 -6 12 -8 13 -2 8 75 3 99 -17 86z"/>
<path d="M540 615 c0 -8 7 -15 15 -15 8 0 15 7 15 15 0 8 -7 15 -15 15 -8 0
-15 -7 -15 -15z"/>
<path d="M600 615 c0 -12 15 -15 75 -15 60 0 75 3 75 15 0 12 -15 15 -75 15
-60 0 -75 -3 -75 -15z"/>
<path d="M540 555 c0 -8 7 -15 15 -15 8 0 15 7 15 15 0 8 -7 15 -15 15 -8 0
-15 -7 -15 -15z"/>
<path d="M600 555 c0 -12 15 -15 75 -15 60 0 75 3 75 15 0 12 -15 15 -75 15
-60 0 -75 -3 -75 -15z"/>
<path d="M540 495 c0 -8 7 -15 15 -15 8 0 15 7 15 15 0 8 -7 15 -15 15 -8 0
-15 -7 -15 -15z"/>
<path d="M600 495 c0 -12 15 -15 75 -15 60 0 75 3 75 15 0 12 -15 15 -75 15
-60 0 -75 -3 -75 -15z"/>
</g>
</svg>
